<mxfile host="app.diagrams.net" modified="2023-01-09T05:58:39.745Z" agent="5.0 (Macintosh; Intel Mac OS X 10_15_7) AppleWebKit/537.36 (KHTML, like Gecko) Chrome/108.0.0.0 Safari/537.36" version="20.8.1" etag="7YhjsVSb8sCmb3zmEXNO" type="github">
  <diagram id="29ifXH4ImHjgxGPRNtb-" name="第 1 页">
    <mxGraphModel dx="1026" dy="693" grid="1" gridSize="10" guides="1" tooltips="1" connect="1" arrows="1" fold="1" page="1" pageScale="1" pageWidth="827" pageHeight="1169" math="0" shadow="0">
      <root>
        <mxCell id="0" />
        <mxCell id="1" parent="0" />
        <mxCell id="iJrWBH-7aDWCKMQtM3JU-17" value="" style="group" vertex="1" connectable="0" parent="1">
          <mxGeometry x="150" y="20" width="490" height="590" as="geometry" />
        </mxCell>
        <mxCell id="iJrWBH-7aDWCKMQtM3JU-61" value="" style="group" vertex="1" connectable="0" parent="iJrWBH-7aDWCKMQtM3JU-17">
          <mxGeometry width="490" height="270" as="geometry" />
        </mxCell>
        <mxCell id="iJrWBH-7aDWCKMQtM3JU-2" value="" style="rounded=0;whiteSpace=wrap;html=1;" vertex="1" parent="iJrWBH-7aDWCKMQtM3JU-61">
          <mxGeometry width="140" height="270" as="geometry" />
        </mxCell>
        <mxCell id="iJrWBH-7aDWCKMQtM3JU-3" value="" style="rounded=0;whiteSpace=wrap;html=1;" vertex="1" parent="iJrWBH-7aDWCKMQtM3JU-61">
          <mxGeometry x="350" width="140" height="270" as="geometry" />
        </mxCell>
        <mxCell id="iJrWBH-7aDWCKMQtM3JU-4" value="分区 0" style="rounded=0;whiteSpace=wrap;html=1;" vertex="1" parent="iJrWBH-7aDWCKMQtM3JU-61">
          <mxGeometry x="25" y="30" width="90" height="40" as="geometry" />
        </mxCell>
        <mxCell id="iJrWBH-7aDWCKMQtM3JU-5" value="分区 1" style="rounded=0;whiteSpace=wrap;html=1;" vertex="1" parent="iJrWBH-7aDWCKMQtM3JU-61">
          <mxGeometry x="25" y="90" width="90" height="40" as="geometry" />
        </mxCell>
        <mxCell id="iJrWBH-7aDWCKMQtM3JU-6" value="分区 2" style="rounded=0;whiteSpace=wrap;html=1;" vertex="1" parent="iJrWBH-7aDWCKMQtM3JU-61">
          <mxGeometry x="25" y="150" width="90" height="40" as="geometry" />
        </mxCell>
        <mxCell id="iJrWBH-7aDWCKMQtM3JU-7" value="分区 3" style="rounded=0;whiteSpace=wrap;html=1;" vertex="1" parent="iJrWBH-7aDWCKMQtM3JU-61">
          <mxGeometry x="25" y="210" width="90" height="40" as="geometry" />
        </mxCell>
        <mxCell id="iJrWBH-7aDWCKMQtM3JU-8" value="主题 T1" style="text;html=1;strokeColor=none;fillColor=none;align=center;verticalAlign=middle;whiteSpace=wrap;rounded=0;" vertex="1" parent="iJrWBH-7aDWCKMQtM3JU-61">
          <mxGeometry x="40" width="60" height="30" as="geometry" />
        </mxCell>
        <mxCell id="iJrWBH-7aDWCKMQtM3JU-9" value="消费者 C1" style="rounded=0;whiteSpace=wrap;html=1;" vertex="1" parent="iJrWBH-7aDWCKMQtM3JU-61">
          <mxGeometry x="375" y="30" width="90" height="40" as="geometry" />
        </mxCell>
        <mxCell id="iJrWBH-7aDWCKMQtM3JU-10" value="消费者群组 1" style="text;html=1;strokeColor=none;fillColor=none;align=center;verticalAlign=middle;whiteSpace=wrap;rounded=0;" vertex="1" parent="iJrWBH-7aDWCKMQtM3JU-61">
          <mxGeometry x="380" y="5" width="80" height="20" as="geometry" />
        </mxCell>
        <mxCell id="iJrWBH-7aDWCKMQtM3JU-12" value="" style="endArrow=classic;html=1;rounded=0;entryX=0;entryY=0.5;entryDx=0;entryDy=0;exitX=1;exitY=0.5;exitDx=0;exitDy=0;" edge="1" parent="iJrWBH-7aDWCKMQtM3JU-61" source="iJrWBH-7aDWCKMQtM3JU-4" target="iJrWBH-7aDWCKMQtM3JU-9">
          <mxGeometry width="50" height="50" relative="1" as="geometry">
            <mxPoint x="210" y="110" as="sourcePoint" />
            <mxPoint x="260" y="60" as="targetPoint" />
          </mxGeometry>
        </mxCell>
        <mxCell id="iJrWBH-7aDWCKMQtM3JU-13" value="" style="endArrow=classic;html=1;rounded=0;entryX=0;entryY=0.5;entryDx=0;entryDy=0;exitX=1;exitY=0.5;exitDx=0;exitDy=0;" edge="1" parent="iJrWBH-7aDWCKMQtM3JU-61" source="iJrWBH-7aDWCKMQtM3JU-5" target="iJrWBH-7aDWCKMQtM3JU-9">
          <mxGeometry width="50" height="50" relative="1" as="geometry">
            <mxPoint x="180" y="170" as="sourcePoint" />
            <mxPoint x="230" y="120" as="targetPoint" />
          </mxGeometry>
        </mxCell>
        <mxCell id="iJrWBH-7aDWCKMQtM3JU-14" value="" style="endArrow=classic;html=1;rounded=0;entryX=0;entryY=0.5;entryDx=0;entryDy=0;exitX=1;exitY=0.5;exitDx=0;exitDy=0;" edge="1" parent="iJrWBH-7aDWCKMQtM3JU-61" source="iJrWBH-7aDWCKMQtM3JU-6" target="iJrWBH-7aDWCKMQtM3JU-9">
          <mxGeometry width="50" height="50" relative="1" as="geometry">
            <mxPoint x="250" y="160" as="sourcePoint" />
            <mxPoint x="300" y="110" as="targetPoint" />
          </mxGeometry>
        </mxCell>
        <mxCell id="iJrWBH-7aDWCKMQtM3JU-15" value="" style="endArrow=classic;html=1;rounded=0;exitX=1;exitY=0.5;exitDx=0;exitDy=0;entryX=0;entryY=0.5;entryDx=0;entryDy=0;" edge="1" parent="iJrWBH-7aDWCKMQtM3JU-61" source="iJrWBH-7aDWCKMQtM3JU-7" target="iJrWBH-7aDWCKMQtM3JU-9">
          <mxGeometry width="50" height="50" relative="1" as="geometry">
            <mxPoint x="180" y="230" as="sourcePoint" />
            <mxPoint x="370" y="60" as="targetPoint" />
          </mxGeometry>
        </mxCell>
        <mxCell id="iJrWBH-7aDWCKMQtM3JU-91" value="" style="group" vertex="1" connectable="0" parent="iJrWBH-7aDWCKMQtM3JU-17">
          <mxGeometry y="320" width="490" height="270" as="geometry" />
        </mxCell>
        <mxCell id="iJrWBH-7aDWCKMQtM3JU-19" value="" style="rounded=0;whiteSpace=wrap;html=1;" vertex="1" parent="iJrWBH-7aDWCKMQtM3JU-91">
          <mxGeometry width="140" height="270" as="geometry" />
        </mxCell>
        <mxCell id="iJrWBH-7aDWCKMQtM3JU-20" value="" style="rounded=0;whiteSpace=wrap;html=1;" vertex="1" parent="iJrWBH-7aDWCKMQtM3JU-91">
          <mxGeometry x="350" width="140" height="270" as="geometry" />
        </mxCell>
        <mxCell id="iJrWBH-7aDWCKMQtM3JU-21" value="分区 0" style="rounded=0;whiteSpace=wrap;html=1;" vertex="1" parent="iJrWBH-7aDWCKMQtM3JU-91">
          <mxGeometry x="25" y="30" width="90" height="40" as="geometry" />
        </mxCell>
        <mxCell id="iJrWBH-7aDWCKMQtM3JU-22" value="分区 1" style="rounded=0;whiteSpace=wrap;html=1;" vertex="1" parent="iJrWBH-7aDWCKMQtM3JU-91">
          <mxGeometry x="25" y="90" width="90" height="40" as="geometry" />
        </mxCell>
        <mxCell id="iJrWBH-7aDWCKMQtM3JU-23" value="分区 2" style="rounded=0;whiteSpace=wrap;html=1;" vertex="1" parent="iJrWBH-7aDWCKMQtM3JU-91">
          <mxGeometry x="25" y="150" width="90" height="40" as="geometry" />
        </mxCell>
        <mxCell id="iJrWBH-7aDWCKMQtM3JU-24" value="分区 3" style="rounded=0;whiteSpace=wrap;html=1;" vertex="1" parent="iJrWBH-7aDWCKMQtM3JU-91">
          <mxGeometry x="25" y="210" width="90" height="40" as="geometry" />
        </mxCell>
        <mxCell id="iJrWBH-7aDWCKMQtM3JU-25" value="主题 T1" style="text;html=1;strokeColor=none;fillColor=none;align=center;verticalAlign=middle;whiteSpace=wrap;rounded=0;" vertex="1" parent="iJrWBH-7aDWCKMQtM3JU-91">
          <mxGeometry x="40" width="60" height="30" as="geometry" />
        </mxCell>
        <mxCell id="iJrWBH-7aDWCKMQtM3JU-26" value="消费者 C1" style="rounded=0;whiteSpace=wrap;html=1;" vertex="1" parent="iJrWBH-7aDWCKMQtM3JU-91">
          <mxGeometry x="375" y="30" width="90" height="40" as="geometry" />
        </mxCell>
        <mxCell id="iJrWBH-7aDWCKMQtM3JU-27" value="消费者群组 1" style="text;html=1;strokeColor=none;fillColor=none;align=center;verticalAlign=middle;whiteSpace=wrap;rounded=0;" vertex="1" parent="iJrWBH-7aDWCKMQtM3JU-91">
          <mxGeometry x="380" y="5" width="80" height="20" as="geometry" />
        </mxCell>
        <mxCell id="iJrWBH-7aDWCKMQtM3JU-28" value="" style="endArrow=classic;html=1;rounded=0;entryX=0;entryY=0.5;entryDx=0;entryDy=0;exitX=1;exitY=0.5;exitDx=0;exitDy=0;" edge="1" parent="iJrWBH-7aDWCKMQtM3JU-91" source="iJrWBH-7aDWCKMQtM3JU-21" target="iJrWBH-7aDWCKMQtM3JU-26">
          <mxGeometry width="50" height="50" relative="1" as="geometry">
            <mxPoint x="210" y="110" as="sourcePoint" />
            <mxPoint x="260" y="60" as="targetPoint" />
          </mxGeometry>
        </mxCell>
        <mxCell id="iJrWBH-7aDWCKMQtM3JU-29" value="" style="endArrow=classic;html=1;rounded=0;entryX=0;entryY=0.5;entryDx=0;entryDy=0;exitX=1;exitY=0.5;exitDx=0;exitDy=0;" edge="1" parent="iJrWBH-7aDWCKMQtM3JU-91" source="iJrWBH-7aDWCKMQtM3JU-22" target="iJrWBH-7aDWCKMQtM3JU-26">
          <mxGeometry width="50" height="50" relative="1" as="geometry">
            <mxPoint x="180" y="170" as="sourcePoint" />
            <mxPoint x="230" y="120" as="targetPoint" />
          </mxGeometry>
        </mxCell>
        <mxCell id="iJrWBH-7aDWCKMQtM3JU-58" value="消费者 C2" style="rounded=0;whiteSpace=wrap;html=1;" vertex="1" parent="iJrWBH-7aDWCKMQtM3JU-91">
          <mxGeometry x="375" y="210" width="90" height="40" as="geometry" />
        </mxCell>
        <mxCell id="iJrWBH-7aDWCKMQtM3JU-59" value="" style="endArrow=classic;html=1;rounded=0;entryX=0;entryY=0.5;entryDx=0;entryDy=0;exitX=1;exitY=0.5;exitDx=0;exitDy=0;" edge="1" parent="iJrWBH-7aDWCKMQtM3JU-91" source="iJrWBH-7aDWCKMQtM3JU-23" target="iJrWBH-7aDWCKMQtM3JU-58">
          <mxGeometry width="50" height="50" relative="1" as="geometry">
            <mxPoint x="190" y="200" as="sourcePoint" />
            <mxPoint x="240" y="150" as="targetPoint" />
          </mxGeometry>
        </mxCell>
        <mxCell id="iJrWBH-7aDWCKMQtM3JU-60" value="" style="endArrow=classic;html=1;rounded=0;entryX=0;entryY=0.5;entryDx=0;entryDy=0;exitX=1;exitY=0.5;exitDx=0;exitDy=0;" edge="1" parent="iJrWBH-7aDWCKMQtM3JU-91" source="iJrWBH-7aDWCKMQtM3JU-24" target="iJrWBH-7aDWCKMQtM3JU-58">
          <mxGeometry width="50" height="50" relative="1" as="geometry">
            <mxPoint x="180" y="290" as="sourcePoint" />
            <mxPoint x="230" y="240" as="targetPoint" />
          </mxGeometry>
        </mxCell>
        <mxCell id="iJrWBH-7aDWCKMQtM3JU-141" value="" style="group" vertex="1" connectable="0" parent="1">
          <mxGeometry x="150" y="690" width="490" height="270" as="geometry" />
        </mxCell>
        <mxCell id="iJrWBH-7aDWCKMQtM3JU-93" value="" style="rounded=0;whiteSpace=wrap;html=1;" vertex="1" parent="iJrWBH-7aDWCKMQtM3JU-141">
          <mxGeometry width="140" height="270" as="geometry" />
        </mxCell>
        <mxCell id="iJrWBH-7aDWCKMQtM3JU-94" value="" style="rounded=0;whiteSpace=wrap;html=1;" vertex="1" parent="iJrWBH-7aDWCKMQtM3JU-141">
          <mxGeometry x="350" width="140" height="270" as="geometry" />
        </mxCell>
        <mxCell id="iJrWBH-7aDWCKMQtM3JU-95" value="分区 0" style="rounded=0;whiteSpace=wrap;html=1;" vertex="1" parent="iJrWBH-7aDWCKMQtM3JU-141">
          <mxGeometry x="25" y="30" width="90" height="40" as="geometry" />
        </mxCell>
        <mxCell id="iJrWBH-7aDWCKMQtM3JU-96" value="分区 1" style="rounded=0;whiteSpace=wrap;html=1;" vertex="1" parent="iJrWBH-7aDWCKMQtM3JU-141">
          <mxGeometry x="25" y="90" width="90" height="40" as="geometry" />
        </mxCell>
        <mxCell id="iJrWBH-7aDWCKMQtM3JU-97" value="分区 2" style="rounded=0;whiteSpace=wrap;html=1;" vertex="1" parent="iJrWBH-7aDWCKMQtM3JU-141">
          <mxGeometry x="25" y="150" width="90" height="40" as="geometry" />
        </mxCell>
        <mxCell id="iJrWBH-7aDWCKMQtM3JU-98" value="分区 3" style="rounded=0;whiteSpace=wrap;html=1;" vertex="1" parent="iJrWBH-7aDWCKMQtM3JU-141">
          <mxGeometry x="25" y="210" width="90" height="40" as="geometry" />
        </mxCell>
        <mxCell id="iJrWBH-7aDWCKMQtM3JU-99" value="主题 T1" style="text;html=1;strokeColor=none;fillColor=none;align=center;verticalAlign=middle;whiteSpace=wrap;rounded=0;" vertex="1" parent="iJrWBH-7aDWCKMQtM3JU-141">
          <mxGeometry x="40" width="60" height="30" as="geometry" />
        </mxCell>
        <mxCell id="iJrWBH-7aDWCKMQtM3JU-100" value="消费者 C1" style="rounded=0;whiteSpace=wrap;html=1;" vertex="1" parent="iJrWBH-7aDWCKMQtM3JU-141">
          <mxGeometry x="375" y="30" width="90" height="40" as="geometry" />
        </mxCell>
        <mxCell id="iJrWBH-7aDWCKMQtM3JU-101" value="消费者群组 1" style="text;html=1;strokeColor=none;fillColor=none;align=center;verticalAlign=middle;whiteSpace=wrap;rounded=0;" vertex="1" parent="iJrWBH-7aDWCKMQtM3JU-141">
          <mxGeometry x="380" y="5" width="80" height="20" as="geometry" />
        </mxCell>
        <mxCell id="iJrWBH-7aDWCKMQtM3JU-102" value="" style="endArrow=classic;html=1;rounded=0;entryX=0;entryY=0.5;entryDx=0;entryDy=0;exitX=1;exitY=0.5;exitDx=0;exitDy=0;" edge="1" parent="iJrWBH-7aDWCKMQtM3JU-141" source="iJrWBH-7aDWCKMQtM3JU-95" target="iJrWBH-7aDWCKMQtM3JU-100">
          <mxGeometry width="50" height="50" relative="1" as="geometry">
            <mxPoint x="210" y="110" as="sourcePoint" />
            <mxPoint x="260" y="60" as="targetPoint" />
          </mxGeometry>
        </mxCell>
        <mxCell id="iJrWBH-7aDWCKMQtM3JU-104" value="消费者 C4" style="rounded=0;whiteSpace=wrap;html=1;" vertex="1" parent="iJrWBH-7aDWCKMQtM3JU-141">
          <mxGeometry x="375" y="210" width="90" height="40" as="geometry" />
        </mxCell>
        <mxCell id="iJrWBH-7aDWCKMQtM3JU-106" value="" style="endArrow=classic;html=1;rounded=0;entryX=0;entryY=0.5;entryDx=0;entryDy=0;exitX=1;exitY=0.5;exitDx=0;exitDy=0;" edge="1" parent="iJrWBH-7aDWCKMQtM3JU-141" source="iJrWBH-7aDWCKMQtM3JU-98" target="iJrWBH-7aDWCKMQtM3JU-104">
          <mxGeometry width="50" height="50" relative="1" as="geometry">
            <mxPoint x="180" y="290" as="sourcePoint" />
            <mxPoint x="230" y="240" as="targetPoint" />
          </mxGeometry>
        </mxCell>
        <mxCell id="iJrWBH-7aDWCKMQtM3JU-137" value="消费者 C2" style="rounded=0;whiteSpace=wrap;html=1;" vertex="1" parent="iJrWBH-7aDWCKMQtM3JU-141">
          <mxGeometry x="375" y="90" width="90" height="40" as="geometry" />
        </mxCell>
        <mxCell id="iJrWBH-7aDWCKMQtM3JU-139" style="edgeStyle=orthogonalEdgeStyle;rounded=0;orthogonalLoop=1;jettySize=auto;html=1;exitX=1;exitY=0.5;exitDx=0;exitDy=0;entryX=0;entryY=0.5;entryDx=0;entryDy=0;" edge="1" parent="iJrWBH-7aDWCKMQtM3JU-141" source="iJrWBH-7aDWCKMQtM3JU-96" target="iJrWBH-7aDWCKMQtM3JU-137">
          <mxGeometry relative="1" as="geometry" />
        </mxCell>
        <mxCell id="iJrWBH-7aDWCKMQtM3JU-138" value="消费者 C3" style="rounded=0;whiteSpace=wrap;html=1;" vertex="1" parent="iJrWBH-7aDWCKMQtM3JU-141">
          <mxGeometry x="375" y="150" width="90" height="40" as="geometry" />
        </mxCell>
        <mxCell id="iJrWBH-7aDWCKMQtM3JU-140" style="edgeStyle=orthogonalEdgeStyle;rounded=0;orthogonalLoop=1;jettySize=auto;html=1;exitX=1;exitY=0.5;exitDx=0;exitDy=0;entryX=0;entryY=0.5;entryDx=0;entryDy=0;" edge="1" parent="iJrWBH-7aDWCKMQtM3JU-141" source="iJrWBH-7aDWCKMQtM3JU-97" target="iJrWBH-7aDWCKMQtM3JU-138">
          <mxGeometry relative="1" as="geometry" />
        </mxCell>
        <mxCell id="iJrWBH-7aDWCKMQtM3JU-124" value="" style="rounded=0;whiteSpace=wrap;html=1;" vertex="1" parent="1">
          <mxGeometry x="500" y="1050" width="140" height="270" as="geometry" />
        </mxCell>
        <mxCell id="iJrWBH-7aDWCKMQtM3JU-130" value="消费者 C1" style="rounded=0;whiteSpace=wrap;html=1;" vertex="1" parent="1">
          <mxGeometry x="525" y="1080" width="90" height="40" as="geometry" />
        </mxCell>
        <mxCell id="iJrWBH-7aDWCKMQtM3JU-131" value="消费者群组 2" style="text;html=1;strokeColor=none;fillColor=none;align=center;verticalAlign=middle;whiteSpace=wrap;rounded=0;" vertex="1" parent="1">
          <mxGeometry x="530" y="1055" width="80" height="20" as="geometry" />
        </mxCell>
        <mxCell id="iJrWBH-7aDWCKMQtM3JU-134" value="消费者 C2" style="rounded=0;whiteSpace=wrap;html=1;" vertex="1" parent="1">
          <mxGeometry x="525" y="1260" width="90" height="40" as="geometry" />
        </mxCell>
        <mxCell id="iJrWBH-7aDWCKMQtM3JU-143" value="" style="endArrow=classic;html=1;rounded=0;entryX=0;entryY=0.5;entryDx=0;entryDy=0;exitX=1;exitY=0.5;exitDx=0;exitDy=0;" edge="1" parent="1" source="iJrWBH-7aDWCKMQtM3JU-95" target="iJrWBH-7aDWCKMQtM3JU-130">
          <mxGeometry width="50" height="50" relative="1" as="geometry">
            <mxPoint x="250" y="1100" as="sourcePoint" />
            <mxPoint x="300" y="1050" as="targetPoint" />
          </mxGeometry>
        </mxCell>
        <mxCell id="iJrWBH-7aDWCKMQtM3JU-144" value="" style="endArrow=classic;html=1;rounded=0;entryX=0;entryY=0.5;entryDx=0;entryDy=0;exitX=1;exitY=0.5;exitDx=0;exitDy=0;" edge="1" parent="1" source="iJrWBH-7aDWCKMQtM3JU-96" target="iJrWBH-7aDWCKMQtM3JU-130">
          <mxGeometry width="50" height="50" relative="1" as="geometry">
            <mxPoint x="340" y="1170" as="sourcePoint" />
            <mxPoint x="390" y="1120" as="targetPoint" />
          </mxGeometry>
        </mxCell>
        <mxCell id="iJrWBH-7aDWCKMQtM3JU-145" value="" style="endArrow=classic;html=1;rounded=0;entryX=0;entryY=0.5;entryDx=0;entryDy=0;exitX=1;exitY=0.5;exitDx=0;exitDy=0;" edge="1" parent="1" source="iJrWBH-7aDWCKMQtM3JU-97" target="iJrWBH-7aDWCKMQtM3JU-134">
          <mxGeometry width="50" height="50" relative="1" as="geometry">
            <mxPoint x="370" y="1250" as="sourcePoint" />
            <mxPoint x="420" y="1200" as="targetPoint" />
          </mxGeometry>
        </mxCell>
        <mxCell id="iJrWBH-7aDWCKMQtM3JU-146" value="" style="endArrow=classic;html=1;rounded=0;entryX=0;entryY=0.5;entryDx=0;entryDy=0;exitX=1;exitY=0.5;exitDx=0;exitDy=0;" edge="1" parent="1" source="iJrWBH-7aDWCKMQtM3JU-98" target="iJrWBH-7aDWCKMQtM3JU-134">
          <mxGeometry width="50" height="50" relative="1" as="geometry">
            <mxPoint x="260" y="1260" as="sourcePoint" />
            <mxPoint x="310" y="1210" as="targetPoint" />
          </mxGeometry>
        </mxCell>
      </root>
    </mxGraphModel>
  </diagram>
</mxfile>
